<svg width="0" height="0" class="hidden" xmlns="http://www.w3.org/2000/svg">
  <symbol id="arrow-up" viewBox="0 0 512 512">
    <path fill="none" stroke="currentColor" stroke-linecap="round" stroke-linejoin="round" stroke-width="48"
          d="M112 328l144-144 144 144"/>
  </symbol>
  <symbol id="arrow-right" viewBox="0 0 512 512">
    <path fill="none" stroke="currentColor" stroke-linecap="round" stroke-linejoin="round" stroke-width="48"
          d="M184 112l144 144-144 144"/>
  </symbol>
  <symbol id="arrow-left" viewBox="0 0 512 512">
    <path fill="none" stroke="currentColor" stroke-linecap="round" stroke-linejoin="round" stroke-width="48"
          d="M328 112L184 256l144 144"/>
  </symbol>
  <symbol id="arrow-bottom" viewBox="0 0 512 512">
    <path fill="none" stroke="currentColor" stroke-linecap="round" stroke-linejoin="round" stroke-width="48"
          d="M112 184l144 144 144-144"/>
  </symbol>
  <symbol id="menu" viewBox="0 0 512 512">
    <path fill="none" stroke="currentColor" stroke-linecap="round" stroke-miterlimit="10" stroke-width="32"
          d="M80 160h352M80 256h352M80 352h352"/>
  </symbol>
  <symbol id="grid" viewBox="0 0 512 512">
    <rect x="48" y="48" width="176" height="176" rx="20" ry="20" fill="none" stroke="currentColor"
          stroke-linecap="round" stroke-linejoin="round" stroke-width="32"/>
    <rect x="288" y="48" width="176" height="176" rx="20" ry="20" fill="none" stroke="currentColor"
          stroke-linecap="round" stroke-linejoin="round" stroke-width="32"/>
    <rect x="48" y="288" width="176" height="176" rx="20" ry="20" fill="none" stroke="currentColor"
          stroke-linecap="round" stroke-linejoin="round" stroke-width="32"/>
    <rect x="288" y="288" width="176" height="176" rx="20" ry="20" fill="none" stroke="currentColor"
          stroke-linecap="round" stroke-linejoin="round" stroke-width="32"/>
  </symbol>
  <symbol id="call" viewBox="0 0 512 512">
    <path
      d="M451 374c-15.88-16-54.34-39.35-73-48.76-24.3-12.24-26.3-13.24-45.4.95-12.74 9.47-21.21 17.93-36.12 14.75s-47.31-21.11-75.68-49.39-47.34-61.62-50.53-76.48 5.41-23.23 14.79-36c13.22-18 12.22-21 .92-45.3-8.81-18.9-32.84-57-48.9-72.8C119.9 44 119.9 47 108.83 51.6A160.15 160.15 0 0083 65.37C67 76 58.12 84.83 51.91 98.1s-9 44.38 23.07 102.64 54.57 88.05 101.14 134.49S258.5 406.64 310.85 436c64.76 36.27 89.6 29.2 102.91 23s22.18-15 32.83-31a159.09 159.09 0 0013.8-25.8C465 391.17 468 391.17 451 374z"
      fill="none" stroke="currentColor" stroke-miterlimit="10" stroke-width="32"/>
  </symbol>
  <symbol id="mail" viewBox="0 0 512 512">
    <rect x="48" y="96" width="416" height="320" rx="40" ry="40" fill="none" stroke="currentColor"
          stroke-linecap="round" stroke-linejoin="round" stroke-width="32"/>
    <path fill="none" stroke="currentColor" stroke-linecap="round" stroke-linejoin="round" stroke-width="32"
          d="M112 160l144 112 144-112"/>
  </symbol>
  <symbol id="location" viewBox="0 0 512 512">
    <path
      d="M256 48c-79.5 0-144 61.39-144 137 0 87 96 224.87 131.25 272.49a15.77 15.77 0 0025.5 0C304 409.89 400 272.07 400 185c0-75.61-64.5-137-144-137z"
      fill="none" stroke="currentColor" stroke-linecap="round" stroke-linejoin="round" stroke-width="32"/>
    <circle cx="256" cy="192" r="48" fill="none" stroke="currentColor" stroke-linecap="round" stroke-linejoin="round"
            stroke-width="32"/>
  </symbol>
  <symbol id="close" viewBox="0 0 512 512">
    <path fill="none" stroke="currentColor" stroke-linecap="round" stroke-linejoin="round" stroke-width="32"
          d="M368 368L144 144M368 144L144 368"/>
  </symbol>
  <symbol id="trash" viewBox="0 0 512 512">
    <path d="M432 144l-28.67 275.74A32 32 0 01371.55 448H140.46a32 32 0 01-31.78-28.26L80 144" fill="none"
          stroke="currentColor" stroke-linecap="round" stroke-linejoin="round" stroke-width="32"/>
    <rect x="32" y="64" width="448" height="80" rx="16" ry="16" fill="none" stroke="currentColor" stroke-linecap="round"
          stroke-linejoin="round" stroke-width="32"/>
    <path fill="none" stroke="currentColor" stroke-linecap="round" stroke-linejoin="round" stroke-width="32"
          d="M312 240L200 352M312 352L200 240"/>
  </symbol>
  <symbol id="send" viewBox="0 0 512 512">
    <path
      d="M470.3 271.15L43.16 447.31a7.83 7.83 0 01-11.16-7V327a8 8 0 016.51-7.86l247.62-47c17.36-3.29 17.36-28.15 0-31.44l-247.63-47a8 8 0 01-6.5-7.85V72.59c0-5.74 5.88-10.26 11.16-8L470.3 241.76a16 16 0 010 29.39z"
      fill="none" stroke="currentColor" stroke-linecap="round" stroke-linejoin="round" stroke-width="32"/>
  </symbol>
  <symbol id="bookmark" viewBox="0 0 512 512">
    <path d="M352 48H160a48 48 0 00-48 48v368l144-128 144 128V96a48 48 0 00-48-48z" fill="none" stroke="currentColor"
          stroke-linecap="round" stroke-linejoin="round" stroke-width="32"/>
  </symbol>
  <symbol id="book" viewBox="0 0 512 512">
    <path
      d="M256 160c16-63.16 76.43-95.41 208-96a15.94 15.94 0 0116 16v288a16 16 0 01-16 16c-128 0-177.45 25.81-208 64-30.37-38-80-64-208-64-9.88 0-16-8.05-16-17.93V80a15.94 15.94 0 0116-16c131.57.59 192 32.84 208 96zM256 160v288"
      fill="none" stroke="currentColor" stroke-linecap="round" stroke-linejoin="round" stroke-width="32"/>
  </symbol>
  <symbol id="search" viewBox="0 0 512 512">
    <path d="M221.09 64a157.09 157.09 0 10157.09 157.09A157.1 157.1 0 00221.09 64z" fill="none" stroke="currentColor"
          stroke-miterlimit="10" stroke-width="32"/>
    <path fill="none" stroke="currentColor" stroke-linecap="round" stroke-miterlimit="10" stroke-width="32"
          d="M338.29 338.29L448 448"/>
  </symbol>
  <symbol id="user" viewBox="0 0 512 512">
    <path d="M344 144c-3.92 52.87-44 96-88 96s-84.15-43.12-88-96c-4-55 35-96 88-96s92 42 88 96z" fill="none"
          stroke="currentColor" stroke-linecap="round" stroke-linejoin="round" stroke-width="32"/>
    <path
      d="M256 304c-87 0-175.3 48-191.64 138.6C62.39 453.52 68.57 464 80 464h352c11.44 0 17.62-10.48 15.65-21.4C431.3 352 343 304 256 304z"
      fill="none" stroke="currentColor" stroke-miterlimit="10" stroke-width="32"/>
  </symbol>
  <symbol id="cart" viewBox="0 0 512 512">
    <circle cx="176" cy="416" r="16" fill="none" stroke="currentColor" stroke-linecap="round" stroke-linejoin="round"
            stroke-width="32"/>
    <circle cx="400" cy="416" r="16" fill="none" stroke="currentColor" stroke-linecap="round" stroke-linejoin="round"
            stroke-width="32"/>
    <path fill="none" stroke="currentColor" stroke-linecap="round" stroke-linejoin="round" stroke-width="32"
          d="M48 80h64l48 272h256"/>
    <path d="M160 288h249.44a8 8 0 007.85-6.43l28.8-144a8 8 0 00-7.85-9.57H128" fill="none" stroke="currentColor"
          stroke-linecap="round" stroke-linejoin="round" stroke-width="32"/>
  </symbol>
  <symbol id="check" viewBox="0 0 512 512">
    <path fill="none" stroke="currentColor" stroke-linecap="round" stroke-linejoin="round" stroke-width="64"
          d="M416 128L192 384l-96-96"/>
  </symbol>
  <symbol id="remove" viewBox="0 0 512 512">
    <path fill="none" stroke="currentColor" stroke-linecap="round" stroke-linejoin="round" stroke-width="32"
          d="M400 256H112"/>
  </symbol>
  <symbol id="add" viewBox="0 0 512 512">
    <path fill="none" stroke="currentColor" stroke-linecap="round" stroke-linejoin="round" stroke-width="32"
          d="M256 112v288M400 256H112"/>
  </symbol>
  <symbol id="edit" viewBox="0 0 512 512">
    <path d="M384 224v184a40 40 0 01-40 40H104a40 40 0 01-40-40V168a40 40 0 0140-40h167.48" fill="none"
          stroke="currentColor" stroke-linecap="round" stroke-linejoin="round" stroke-width="32"/>
    <path fill="currentColor"
          d="M459.94 53.25a16.06 16.06 0 00-23.22-.56L424.35 65a8 8 0 000 11.31l11.34 11.32a8 8 0 0011.34 0l12.06-12c6.1-6.09 6.67-16.01.85-22.38zM399.34 90L218.82 270.2a9 9 0 00-2.31 3.93L208.16 299a3.91 3.91 0 004.86 4.86l24.85-8.35a9 9 0 003.93-2.31L422 112.66a9 9 0 000-12.66l-9.95-10a9 9 0 00-12.71 0z"/>
  </symbol>
  <symbol id="save" viewBox="0 0 512 512">
    <path
      d="M380.93 57.37A32 32 0 00358.3 48H94.22A46.21 46.21 0 0048 94.22v323.56A46.21 46.21 0 0094.22 464h323.56A46.36 46.36 0 00464 417.78V153.7a32 32 0 00-9.37-22.63zM256 416a64 64 0 1164-64 63.92 63.92 0 01-64 64zm48-224H112a16 16 0 01-16-16v-64a16 16 0 0116-16h192a16 16 0 0116 16v64a16 16 0 01-16 16z"
      fill="none" stroke="currentColor" stroke-linecap="round" stroke-linejoin="round" stroke-width="32"/>
  </symbol>
</svg>
